<?xml version="1.0" encoding="utf-8"?>
<!-- Generator: Adobe Illustrator 23.0.2, SVG Export Plug-In . SVG Version: 6.00 Build 0)  -->
<svg version="1.1" id="Layer_1" xmlns="http://www.w3.org/2000/svg" xmlns:xlink="http://www.w3.org/1999/xlink" x="0px" y="0px"
	 viewBox="0 0 46.5 68.4" style="enable-background:new 0 0 46.5 68.4;" xml:space="preserve">
<style type="text/css">
	.st0{fill:#DA2327;}
	.st1{fill:url(#SVGID_1_);}
	.st2{fill:url(#SVGID_2_);}
	.st3{fill:url(#SVGID_3_);}
	.st4{opacity:0.2;}
	.st5{fill:#FFFFFF;}
	.st6{opacity:0.6;}
</style>
<g>
	<g>
		<path class="st0" d="M36.1,12.5C36,10.4,35.3,9.1,35.3,9c0-0.1-0.1-0.1-0.1-0.1c0,0,0,0,0,0c-0.1,0-0.1,0-0.1,0.1
			c0,0-1.3,2.2-4.7,4.3c-2.5,1.6-3.4,2-7.5,3.9c-0.4,0.2-0.9,0.4-1.5,0.7c-2.7,1.3-5.8,2.9-7.5,5.6c-1.7,2.7-1.9,6.1-0.5,10.4
			c0.5,1.5,0.6,1.5,0.7,1.5c0.1,0,0.2-0.1,0.2-0.2c0,0,0-0.1,0-0.1c0-0.3-0.1-3.7,6.9-6.8c8.9-4,10.9-5.4,12.6-7.8
			C35.9,17.3,36.2,14.4,36.1,12.5z"/>
		<path class="st0" d="M29.1,29.3c-1.9,1.2-7.2,4.4-9.7,5.9c-2.5,1.6-3.3,5.7-2.7,8.5c0.5,2.2,0.9,2.9,0.9,2.9
			c0.1,0.1,0.9-1.7,4.9-4.2c4.5-2.9,5.6-2.7,7.5-5.3c3.1-4.2,2.6-8.3,1.9-10.4C31.3,27.5,31,28.1,29.1,29.3z"/>
		<path class="st0" d="M28.5,44.3c0,0-0.1,0-0.1,0c0,0,0,0,0,0c-0.1,0-0.2,0.1-1.7,1.1c-0.8,0.6-2,1.4-3.2,2.3
			c-2.4,1.7-3.2,2.7-3.5,4.3c-0.3,1.5,0.6,3.9,0.7,4c0,0,0.1,0.1,0.1,0.1c0,0,0,0,0,0c0,0,0.1,0,0.1,0c0,0,1.2-0.9,3.8-2.8
			c1.6-1.1,2.7-2.9,3.3-5.1c0.5-1.8,0.5-3.3,0.5-3.8C28.5,44.4,28.5,44.3,28.5,44.3z"/>
	</g>
	<g>
		<linearGradient id="SVGID_1_" gradientUnits="userSpaceOnUse" x1="24.2931" y1="35.363" x2="24.2931" y2="8.9312">
			<stop  offset="0" style="stop-color:#FFC10E"/>
			<stop  offset="9.308948e-02" style="stop-color:#FDB912;stop-opacity:0.8177"/>
			<stop  offset="0.2385" style="stop-color:#F9A31E;stop-opacity:0.5329"/>
			<stop  offset="0.4171" style="stop-color:#F17F31;stop-opacity:0.1831"/>
			<stop  offset="0.5106" style="stop-color:#ED693C;stop-opacity:0"/>
		</linearGradient>
		<path class="st1" d="M36.1,12.5C36,10.4,35.3,9.1,35.3,9c0-0.1-0.1-0.1-0.1-0.1c0,0,0,0,0,0c-0.1,0-0.1,0-0.1,0.1
			c0,0-1.3,2.2-4.7,4.3c-2.5,1.6-3.4,2-7.5,3.9c-0.4,0.2-0.9,0.4-1.5,0.7c-2.7,1.3-5.8,2.9-7.5,5.6c-1.7,2.7-1.9,6.1-0.5,10.4
			c0.5,1.5,0.6,1.5,0.7,1.5c0.1,0,0.2-0.1,0.2-0.2c0,0,0-0.1,0-0.1c0-0.3-0.1-3.7,6.9-6.8c8.9-4,10.9-5.4,12.6-7.8
			C35.9,17.3,36.2,14.4,36.1,12.5z"/>
		<linearGradient id="SVGID_2_" gradientUnits="userSpaceOnUse" x1="24.4589" y1="46.6272" x2="24.4589" y2="26.6877">
			<stop  offset="0" style="stop-color:#FFC10E"/>
			<stop  offset="9.308948e-02" style="stop-color:#FDB912;stop-opacity:0.8177"/>
			<stop  offset="0.2385" style="stop-color:#F9A31E;stop-opacity:0.5329"/>
			<stop  offset="0.4171" style="stop-color:#F17F31;stop-opacity:0.1831"/>
			<stop  offset="0.5106" style="stop-color:#ED693C;stop-opacity:0"/>
		</linearGradient>
		<path class="st2" d="M29.1,29.3c-1.9,1.2-7.2,4.4-9.7,5.9c-2.5,1.6-3.3,5.7-2.7,8.5c0.5,2.2,0.9,2.9,0.9,2.9
			c0.1,0.1,0.9-1.7,4.9-4.2c4.5-2.9,5.6-2.7,7.5-5.3c3.1-4.2,2.6-8.3,1.9-10.4C31.3,27.5,31,28.1,29.1,29.3z"/>
		<linearGradient id="SVGID_3_" gradientUnits="userSpaceOnUse" x1="24.2341" y1="56.1135" x2="24.2341" y2="44.2396">
			<stop  offset="0" style="stop-color:#FFC10E"/>
			<stop  offset="9.308948e-02" style="stop-color:#FDB912;stop-opacity:0.8177"/>
			<stop  offset="0.2385" style="stop-color:#F9A31E;stop-opacity:0.5329"/>
			<stop  offset="0.4171" style="stop-color:#F17F31;stop-opacity:0.1831"/>
			<stop  offset="0.5106" style="stop-color:#ED693C;stop-opacity:0"/>
		</linearGradient>
		<path class="st3" d="M28.5,44.3c0,0-0.1,0-0.1,0c0,0,0,0,0,0c-0.1,0-0.2,0.1-1.7,1.1c-0.8,0.6-2,1.4-3.2,2.3
			c-2.4,1.7-3.2,2.7-3.5,4.3c-0.3,1.5,0.6,3.9,0.7,4c0,0,0.1,0.1,0.1,0.1c0,0,0,0,0,0c0,0,0.1,0,0.1,0c0,0,1.2-0.9,3.8-2.8
			c1.6-1.1,2.7-2.9,3.3-5.1c0.5-1.8,0.5-3.3,0.5-3.8C28.5,44.4,28.5,44.3,28.5,44.3z"/>
	</g>
	<g class="st4">
		<path class="st5" d="M31.8,26.8c-0.6,0.8-1,1.3-2.7,2.5c-1.9,1.2-7.2,4.4-9.7,5.9c-2.5,1.6-3.3,5.6-2.7,8.4
			c0.5-0.6,1.7-2.1,4.8-4.1c1.6-1,2.7-1.6,3.7-2.2c1.9-1,2.9-1.6,4.2-3.4C31.6,30.9,32.1,28.8,31.8,26.8z"/>
		<path class="st5" d="M23.5,47.6c-2.4,1.7-3.2,2.7-3.5,4.3c-0.1,0.6,0,1.4,0.1,2.1c0.5-0.4,1.9-1.4,4.2-3.1c1.8-1.3,3.1-3.3,3.8-6
			c0.1-0.3,0.1-0.5,0.2-0.8c-0.1,0-0.2,0.1-1.7,1.1C25.8,46,24.7,46.8,23.5,47.6z"/>
		<path class="st5" d="M19.6,24.4c9.3-4.2,11.4-5.7,13.1-8.2c1.9-2.7,2.5-5.3,2.5-7.3c0,0-0.1-0.1-0.1-0.1c0,0,0,0,0,0
			c-0.1,0-0.1,0-0.1,0.1c0,0-1.3,2.2-4.7,4.3c-2.5,1.6-3.4,2-7.5,3.9c-0.4,0.2-0.9,0.4-1.5,0.7c-2.7,1.3-5.8,2.9-7.5,5.6
			c-1.3,2-1.7,4.3-1.3,7.2C12.9,29.3,14.3,26.8,19.6,24.4z"/>
	</g>
	<g class="st6">
		<path class="st5" d="M19.4,35.5c2.5-1.6,7.8-4.7,9.7-5.9c1.8-1.2,2.1-1.7,2.7-2.5c0,0.3,0,0.5,0.1,0.8c0-0.4,0-0.7-0.1-1.1
			c-0.6,0.8-1,1.3-2.7,2.5c-1.9,1.2-7.2,4.4-9.7,5.9c-2,1.3-2.9,4.2-2.9,6.7C16.5,39.5,17.5,36.7,19.4,35.5z"/>
		<path class="st5" d="M20,52.3c0.3-1.7,1.1-2.7,3.5-4.3c1.2-0.8,2.3-1.7,3.2-2.3c1.2-0.8,1.5-1.1,1.6-1.1c0-0.1,0.1-0.2,0.1-0.4
			c-0.1,0-0.2,0.1-1.7,1.1c-0.8,0.6-2,1.4-3.2,2.3c-2.4,1.7-3.2,2.7-3.5,4.3c0,0.2-0.1,0.5,0,0.8C20,52.6,20,52.4,20,52.3z"/>
		<path class="st5" d="M13.9,23.8c1.7-2.7,4.7-4.3,7.5-5.6c0.5-0.2,1-0.5,1.5-0.7c4.1-1.9,5-2.3,7.5-3.9c3.4-2.1,4.7-4.3,4.7-4.3
			c0,0,0.1-0.1,0.1-0.1c0,0,0,0,0,0c0,0,0.1,0,0.1,0.1c0-0.1,0-0.2,0-0.3c0,0-0.1-0.1-0.1-0.1c0,0,0,0,0,0c-0.1,0-0.1,0-0.1,0.1
			c0,0-1.3,2.2-4.7,4.3c-2.5,1.6-3.4,2-7.5,3.9c-0.4,0.2-0.9,0.4-1.5,0.7c-2.7,1.3-5.8,2.9-7.5,5.6c-1,1.5-1.4,3.3-1.4,5.3
			C12.5,26.9,12.9,25.2,13.9,23.8z"/>
	</g>
</g>
</svg>
